HIERARCHY
ROOT hip
{
	OFFSET 0.000000 0.000000 0.000000 
	CHANNELS 6 Xposition Yposition Zposition Xrotation Zrotation Yrotation
	JOINT abdomen
	{
		OFFSET 0.000000 3.402643 0.000000 
		CHANNELS 3 Xrotation Zrotation Yrotation
		JOINT chest
		{
			OFFSET 0.000000 8.438565 -0.680529 
			CHANNELS 3 Xrotation Zrotation Yrotation
			JOINT neck
			{
				OFFSET 0.000000 10.207942 -0.272212 
				CHANNELS 3 Xrotation Zrotation Yrotation
				JOINT head
				{
					OFFSET 0.000000 3.130431 0.000000 
					CHANNELS 3 Xrotation Zrotation Yrotation
					End Site
					{
						OFFSET 0.000000 3.130435 0.000000 
					}
				}
			}
			JOINT lCollar
			{
				OFFSET 3.470700 6.669187 -0.816635 
				CHANNELS 3 Yrotation Zrotation Xrotation
				JOINT lShldr
				{
					OFFSET 3.198488 0.000000 0.000000 
					CHANNELS 3 Zrotation Yrotation Xrotation
					JOINT lForeArm
					{
						OFFSET 10.139888 0.000000 0.000000 
						CHANNELS 3 Yrotation Zrotation Xrotation
						JOINT lHand
						{
							OFFSET 8.370511 0.000000 0.000000 
							CHANNELS 3 Zrotation Yrotation Xrotation
							End Site
							{
								OFFSET 4.083176 0.000000 0.000000 
							}
						}
					}
				}
			}
			JOINT rCollar
			{
				OFFSET -3.470700 6.669187 -0.816635 
				CHANNELS 3 Yrotation Zrotation Xrotation
				JOINT rShldr
				{
					OFFSET -3.198488 0.000000 0.000000 
					CHANNELS 3 Zrotation Yrotation Xrotation
					JOINT rForeArm
					{
						OFFSET -10.139888 0.000000 0.000000 
						CHANNELS 3 Yrotation Zrotation Xrotation
						JOINT rHand
						{
							OFFSET -8.370511 0.000000 0.000000 
							CHANNELS 3 Zrotation Yrotation Xrotation
							End Site
							{
								OFFSET -4.083176 0.000000 0.000000 
							}
						}
					}
				}
			}
		}
	}
	JOINT lThigh
	{
		OFFSET 5.308129 -1.633274 1.361059 
		CHANNELS 3 Xrotation Zrotation Yrotation
		JOINT lShin
		{
			OFFSET -2.041588 -20.007561 0.000000 
			CHANNELS 3 Xrotation Zrotation Yrotation
			JOINT lFoot
			{
				OFFSET 0.000000 -19.190928 -1.224953 
				CHANNELS 3 Xrotation Yrotation Zrotation
				End Site
				{
					OFFSET 0.000000 -2.449906 4.627600 
				}
			}
		}
	}
	JOINT rThigh
	{
		OFFSET -5.308129 -1.633274 1.361059 
		CHANNELS 3 Xrotation Zrotation Yrotation
		JOINT rShin
		{
			OFFSET 2.041588 -20.007561 0.000000 
			CHANNELS 3 Xrotation Zrotation Yrotation
			JOINT rFoot
			{
				OFFSET 0.000000 -19.190928 -1.224953 
				CHANNELS 3 Xrotation Yrotation Zrotation
				End Site
				{
					OFFSET 0.000000 -2.449906 4.627600 
				}
			}
		}
	}
}
MOTION
Frames: 15
Frame Time: 0.033333
-0.102491 43.853489 0.394085 -2.900391 5.634766 81.133766 10.370376 -8.712459 -6.345483 -11.230469 11.689453 11.339869 10.039030 -0.175835 -0.052411 -9.023438 -2.832031 -12.314455 2.000000 -2.000000 0.000000 -84.472656 11.689452 -18.955080 -31.219353 4.128423 41.783459 -8.925083 13.554061 47.825478 -2.000000 2.000000 0.000000 63.730465 -7.041016 59.335938 13.315018 -14.392475 -5.061832 25.197973 -3.314228 -9.709111 19.587069 9.394881 19.775703 55.928974 -0.073553 -2.448011 6.171707 2.658176 -17.995291 6.911353 5.154404 2.465684 18.862104 -0.159123 0.709007 -12.389853 -6.678362 31.987558 
-0.338575 43.893406 0.696303 -4.033203 5.185547 81.523438 10.370376 -8.712459 -6.345483 -10.537108 12.900392 11.750226 9.403401 -0.855798 -0.107566 -9.228515 -2.568359 -12.539499 2.000000 -2.000000 0.000000 -84.384766 12.119142 -19.980469 -31.343718 3.775506 40.649433 -8.516400 14.028481 47.946613 -2.000000 2.000000 0.000000 63.193359 -6.474609 59.998901 13.829161 -15.052405 -5.324389 25.351923 -3.376883 -9.632498 12.916028 12.459774 21.485325 64.000824 2.634801 -2.092662 8.451122 2.895536 -17.868759 8.850053 6.713655 2.922515 17.904488 -0.402867 0.571062 -13.381805 -7.085670 31.635622 
-0.707435 43.941887 0.894022 -4.785156 4.394531 81.269531 10.370376 -8.712459 -6.345483 -9.755859 14.121095 12.177734 8.763760 -2.153400 -0.197737 -9.394533 -2.070312 -11.855470 2.000000 -2.000000 0.000000 -84.433594 12.529297 -21.630861 -31.492636 2.378553 37.357677 -5.913533 13.967229 48.832848 -2.000000 2.000000 0.000000 62.304684 -4.931641 61.269527 14.038997 -15.974379 -4.432102 25.511559 -3.224793 -9.497272 5.866616 14.645481 22.547216 69.409485 4.724147 -1.787905 8.622139 3.611830 -17.840429 10.056775 7.840550 3.230843 17.287607 -0.815488 0.425983 -13.821518 -6.512691 31.762880 
-1.143101 44.008255 0.991874 -5.000000 3.125000 80.732948 10.370376 -8.712459 -6.345483 -9.384767 14.960938 12.431641 8.285803 -3.462094 -0.295683 -9.375000 -1.523437 -10.801042 2.000000 -2.000000 0.000000 -84.599609 13.144531 -23.183596 -32.083027 0.887868 34.182362 -3.321819 13.571286 49.716454 -2.000000 2.000000 0.000000 61.357418 -2.792969 62.509769 13.891934 -16.680803 -3.215592 25.607092 -2.924485 -9.346637 -0.929424 15.894205 22.922192 71.128410 5.719985 -1.633051 7.976842 4.028128 -18.173750 10.525261 8.289536 3.366803 16.736109 -1.125152 0.281080 -14.592712 -5.494802 31.134417 
-1.620070 44.114201 0.995038 -4.794922 1.835938 80.107422 10.370376 -8.712459 -6.345483 -8.945313 15.380860 12.617187 7.931999 -4.640853 -0.383460 -9.306643 -1.113281 -9.707064 2.000000 -2.000000 0.000000 -84.892578 13.779296 -24.394529 -32.866253 -0.183832 31.784414 -2.189869 13.000497 50.085655 -2.000000 2.000000 0.000000 60.361324 -0.371094 63.525391 13.649673 -17.062645 -3.211323 25.712210 -2.995664 -9.291643 -6.806553 16.276213 22.756224 68.998215 5.618163 -1.622581 7.084884 3.995543 -19.155457 10.971845 8.121901 3.308535 15.860224 -1.244499 0.153555 -15.301457 -4.336336 30.282761 
-2.115687 44.248890 0.936962 -4.267578 0.703125 79.443481 10.370376 -8.712459 -6.345483 -8.242188 15.380860 12.736966 7.587874 -5.580551 -0.456909 -9.375001 -0.986328 -8.593751 2.000000 -2.000000 0.000000 -85.126953 14.384765 -24.941404 -33.620106 -0.776465 29.855610 -2.258996 12.483147 50.099312 -2.000000 2.000000 0.000000 59.335938 2.041015 64.296875 13.551496 -17.197676 -4.935419 25.422533 -3.281054 -9.404263 -11.425779 16.025108 22.226212 63.698647 4.662269 -1.669090 6.081869 4.003974 -20.584312 11.684738 7.516860 3.107510 14.509837 -1.261531 0.055998 -15.548143 -3.275245 29.580927 
-2.606258 44.365654 0.845833 -3.710938 -0.615234 78.740128 10.370376 -8.712459 -6.345483 -7.695313 15.292968 12.812500 7.285046 -6.238207 -0.494691 -9.726563 -1.025388 -7.607575 2.000000 -2.000000 0.000000 -85.302734 14.814453 -25.056095 -34.247887 -1.011699 28.931448 -2.952323 12.339231 49.917072 -2.000000 2.000000 0.000000 58.310547 4.062500 64.971397 13.815882 -17.421341 -7.544971 24.572731 -3.425035 -9.566503 -14.899906 15.609293 21.731813 56.364414 3.236703 -1.741287 5.135398 4.375671 -22.131506 12.156827 6.893970 2.911804 13.117334 -1.299871 -0.054326 -15.607617 -2.054486 28.986280 
-3.094305 44.429974 0.756044 -3.525390 -2.392578 77.831627 10.370376 -8.712459 -6.345483 -7.431640 15.595704 12.922547 6.964494 -6.725880 -0.519723 -10.146487 -0.830078 -6.748048 2.000000 -2.000000 0.000000 -85.410156 15.126953 -24.853516 -34.834690 -1.003594 29.057964 -3.864762 12.665648 49.652130 -2.000000 2.000000 0.000000 57.304691 5.683593 65.801750 14.511509 -18.136106 -10.007398 23.446966 -3.338199 -9.714927 -17.498070 15.728549 21.454302 47.422432 1.375633 -1.734528 4.309114 4.894569 -23.507639 12.088428 6.796226 2.886190 12.049700 -1.397933 -0.159935 -15.693992 -0.788763 27.974171 
-3.553566 44.438797 0.669008 -3.681641 -4.375000 77.001213 10.370376 -8.712459 -6.345483 -7.246094 16.044924 13.076172 6.884674 -6.828266 -0.542597 -10.732424 -0.673828 -6.318359 2.000000 -2.000000 0.000000 -85.449219 15.380860 -24.245455 -35.761478 -0.580507 30.165981 -5.245743 13.288831 49.199600 -2.000000 2.000000 0.000000 56.445313 6.826172 66.582031 15.448083 -19.381130 -11.762845 22.501795 -3.012609 -9.787097 -18.874086 16.000525 21.383623 36.980244 -0.506475 -1.648314 4.260528 5.626661 -25.606945 11.813186 7.136952 2.994017 11.387006 -1.533563 -0.266639 -15.775041 0.126252 26.641317 
-3.933530 44.422157 0.582745 -3.974610 -6.093750 76.464844 10.370376 -8.712459 -6.345483 -7.001953 16.396486 13.205880 7.132386 -6.618223 -0.526118 -11.376956 -0.546875 -6.435557 2.000000 -2.000000 0.000000 -85.371094 15.644529 -23.320311 -36.819622 0.029170 31.594730 -6.678411 13.260103 48.771328 -2.000000 2.000000 0.000000 55.839844 7.490234 67.041016 16.374121 -20.688177 -12.747806 21.962645 -2.775334 -9.826503 -19.012394 15.993735 21.363579 26.212608 -1.997981 -1.379954 5.290730 6.173491 -28.545568 11.816296 7.548821 3.120896 11.014032 -1.729700 -0.300874 -15.831199 0.660350 26.044636 
-4.205494 44.376381 0.507842 -4.443359 -7.519531 76.229195 10.370376 -8.712459 -6.345483 -6.708984 16.708986 13.332886 7.409446 -6.398522 -0.509951 -11.621097 -0.195313 -6.445312 2.000000 -2.000000 0.000000 -85.185547 15.859375 -22.331318 -37.774349 0.534912 32.316055 -7.471791 12.719850 48.582298 -2.000000 2.000000 0.000000 55.673824 7.607422 67.539063 16.875957 -21.808056 -13.767118 21.333088 -2.653521 -9.890836 -18.465593 15.925442 21.406256 16.609684 -2.910258 -0.995933 5.842218 5.868931 -30.241571 12.196735 8.056339 3.279682 10.763889 -1.884854 -0.387041 -16.176672 0.867027 25.544073 
-4.358661 44.320553 0.411991 -4.755859 -8.515624 76.250008 10.370376 -8.712459 -6.345483 -6.289062 16.640625 13.381704 7.840255 -6.328019 -0.500860 -11.767579 0.185547 -6.542969 2.000000 -2.000000 0.000000 -84.912109 15.839844 -21.464844 -38.479225 0.807605 31.525606 -7.425930 12.475297 48.638115 -2.000000 2.000000 0.000000 55.966797 7.177735 68.261726 16.900351 -22.581745 -15.066487 20.611824 -2.715677 -10.008527 -17.841644 15.497754 21.329750 10.528336 -3.338940 -0.657816 5.156567 5.690544 -30.500513 12.994372 8.230456 3.309205 10.805025 -1.926149 -0.359948 -17.084141 0.261510 24.547836 
-4.456024 44.246235 0.290681 -4.873047 -9.462891 76.385117 10.370376 -8.712459 -6.345483 -6.015625 16.376955 13.349608 8.259537 -6.368097 -0.504675 -11.914063 0.449219 -6.464845 2.000000 -2.000000 0.000000 -84.658203 15.644531 -20.905571 -39.001514 0.846312 29.830034 -6.400923 11.900473 49.023697 -2.000000 2.000000 0.000000 56.591797 6.523438 69.257813 16.623079 -22.801893 -16.692757 20.073633 -3.319448 -10.144453 -18.278442 15.102401 21.105032 8.346685 -3.298076 -0.517906 5.190115 4.951853 -30.527090 13.508060 8.306445 3.330562 11.476438 -2.109497 -0.360726 -18.041351 -0.961126 24.229895 
-4.429853 44.161045 0.101087 -4.628906 -9.658202 76.385086 10.370376 -8.712459 -6.345483 -5.253906 15.634766 13.293648 8.469934 -6.637531 -0.523199 -11.748047 0.810547 -6.249863 2.000000 -2.000000 0.000000 -84.609375 15.371095 -21.113283 -39.479092 0.590007 28.270897 -5.192327 11.218127 49.408310 -2.000000 2.000000 0.000000 57.314453 5.820313 70.645523 16.118031 -22.909243 -17.478086 20.257019 -3.831303 -10.172220 -18.866800 14.218204 20.706699 10.567557 -2.784754 -0.541361 3.824847 4.576210 -30.046749 14.492755 7.705532 3.137599 12.720009 -2.354893 -0.309953 -18.621017 -2.159150 25.181700 
-4.328451 44.059711 -0.158744 -4.111328 -9.785156 76.375290 10.370376 -8.712459 -6.345483 -4.638672 14.736329 13.173828 8.544477 -6.847575 -0.539676 -11.416016 0.976563 -6.035157 2.000000 -2.000000 0.000000 -84.667969 15.078126 -21.530663 -39.881565 0.240370 26.786314 -3.915755 10.292826 49.798580 -2.000000 2.000000 0.000000 57.978519 4.912109 71.983261 15.599843 -23.318056 -16.157715 21.328484 -3.718141 -9.918113 -19.482321 13.066275 20.177084 14.308695 -2.226959 -0.677763 2.747134 3.625388 -27.419407 15.076722 6.669621 2.822416 14.962296 -2.666921 -0.217693 -18.884497 -3.234512 27.280615 
